<?xml version="1.0" encoding="UTF-8"?>
<svg width="465px" height="87px" viewBox="0 0 465 87" version="1.1" xmlns="http://www.w3.org/2000/svg" xmlns:xlink="http://www.w3.org/1999/xlink">
    <title>dilettantminilogo</title>
    <g id="Page-1" stroke="none" stroke-width="1" fill="none" fill-rule="evenodd" stroke-linecap="square" stroke-linejoin="bevel">
        <path d="M39.1582328,83.583 L1.84223276,83.583 C1.00823276,83.583 0.751232758,83.008 1.26323276,82.43 L12.0362328,70.312 C12.3572328,69.926 12.4842328,69.604 12.4842328,69.156 L12.4842328,9.59 C12.4842328,8.501 12.2282328,8.758 11.8452328,8.563 L2.61123276,4.205 C1.77723276,3.754 1.90623276,3.049 2.86823276,3.049 L39.1582328,3.049 C59.9332328,3.049 73.8462328,8.501 81.8622328,21.516 C85.8382328,27.992 87.8252328,35.367 87.8252328,43.574 C87.8252328,54.922 83.4642328,64.798 77.2442328,71.017 C71.0252328,77.236 63.2662328,80.761 51.4702328,82.878 C48.8402328,83.326 44.7372328,83.583 39.1582328,83.583 M33.3872328,8.501 L33.3872328,70.439 C33.3872328,73.771 33.5792328,75.824 33.9002328,76.594 C34.2212328,77.363 34.8002328,77.877 35.6322328,78.325 C36.7872328,78.902 38.4532328,79.159 40.6332328,79.159 C47.7492328,79.159 53.2012328,76.915 56.9822328,72.427 C62.1132328,66.272 64.6792328,56.845 64.6792328,44.022 C64.6792328,33.698 62.9472328,25.429 59.4212328,19.271 C53.9712328,9.846 47.9432328,7.667 34.3482328,7.602 C33.7092328,7.602 33.3872328,7.923 33.3872328,8.501 M106.856233,1 C112.433233,1 116.795233,5.166 116.795233,10.23 C116.795233,15.296 112.306233,19.401 106.856233,19.401 C101.404233,19.401 96.9802328,15.296 96.9802328,10.23 C96.9802328,5.166 101.404233,1 106.856233,1 M92.3012328,27.929 L114.869233,27.929 C115.512233,27.929 115.833233,28.248 115.833233,28.826 L115.833233,71.466 C115.833233,71.849 115.895233,72.17 116.152233,72.557 L122.436233,82.492 C122.822233,83.135 122.501233,83.583 121.731233,83.583 L92.1742328,83.583 C91.3392328,83.583 91.0832328,83.135 91.5962328,82.492 L100.124233,72.17 C100.189233,72.105 100.251233,71.979 100.251233,71.849 L100.764233,38.443 C100.764233,37.93 100.637233,37.673 100.316233,37.29 L91.8522328,29.018 C91.2102328,28.505 91.4662328,27.929 92.3012328,27.929 M129.153233,3.049 L151.851233,3.049 C152.492233,3.049 152.813233,3.371 152.813233,3.948 L152.813233,71.466 C152.813233,71.914 152.878233,72.17 153.135233,72.618 L159.419233,82.492 C159.802233,83.135 159.480233,83.583 158.711233,83.583 L129.026233,83.583 C128.257233,83.583 127.935233,83.135 128.319233,82.492 L134.538233,72.618 C134.795233,72.17 134.859233,71.914 134.859233,71.466 L134.859233,12.155 C134.859233,11.707 134.732233,11.451 134.476233,11.064 L128.575233,4.14 C128.127233,3.5 128.384233,3.049 129.153233,3.049 M210.187233,54.955 L179.220233,54.955 C178.641233,54.955 178.256233,55.339 178.320233,55.917 C179.346233,69.639 187.680233,79.255 195.248233,76.692 C199.352233,75.345 199.544233,74.445 204.803233,69.703 C205.185233,69.252 205.507233,69.125 206.020233,69.125 L209.866233,69.125 C210.636233,69.125 210.892233,69.509 210.573233,70.151 C204.224233,81.308 196.722233,85.475 186.720233,85.475 C168.960233,85.475 161.007233,72.522 161.007233,57.774 C161.007233,39.824 173.575233,28.347 188.132233,28.347 C200.057233,28.347 210.060233,37.129 211.084233,54.056 C211.148233,54.634 210.830233,54.955 210.187233,54.955 M178.961233,50.081 L194.478233,48.671 C195.312233,48.606 195.375233,47.774 195.375233,47.196 C195.312233,41.617 194.927233,40.591 194.286233,38.35 C193.516233,36.041 192.363233,34.372 190.760233,33.154 C189.862233,32.449 188.644233,32.065 187.170233,32.065 C184.926233,32.065 183.130233,33.089 181.718233,35.014 C179.220233,38.412 177.936233,43.157 177.936233,47.389 L177.936233,49.185 C177.936233,49.762 178.320233,50.145 178.961233,50.081 M213.486233,29.883 L234.324233,4.174 C234.901233,3.469 235.476233,3.661 235.542233,4.557 L236.120233,23.088 C236.120233,24.369 236.438233,24.05 237.081233,24.05 L245.736233,24.05 C246.250233,24.05 246.571233,24.177 246.892233,24.563 L251.508233,29.883 C252.085233,30.461 251.829233,31.039 250.994233,31.039 L239.261233,31.039 C238.620233,31.039 238.299233,31.36 238.299233,32 L238.299233,65.472 C238.299233,68.934 238.491233,71.178 238.812233,72.139 C239.452233,74.191 241.375233,75.536 242.722233,75.536 C245.223233,75.536 247.659233,73.806 249.903233,72.201 C250.417233,71.883 250.803233,71.883 251.251233,72.266 L251.829233,72.652 C252.277233,72.971 252.404233,73.422 252.213233,74 C248.685233,81.629 243.171233,85.475 235.669233,85.475 C228.040233,85.475 222.463233,80.408 220.988233,75.215 C220.537233,73.74 220.345233,69.83 220.345233,63.419 L220.345233,32 C220.345233,31.36 220.024233,31.039 219.384233,31.039 L214.061233,31.039 C213.229233,31.039 212.972233,30.526 213.486233,29.883 M255.068233,29.883 L275.906233,4.174 C276.483233,3.469 277.061233,3.661 277.124233,4.557 L277.702233,23.088 C277.702233,24.369 278.023233,24.05 278.663233,24.05 L287.318233,24.05 C287.832233,24.05 288.153233,24.177 288.474233,24.563 L293.090233,29.883 C293.667233,30.461 293.411233,31.039 292.576233,31.039 L280.843233,31.039 C280.202233,31.039 279.881233,31.36 279.881233,32 L279.881233,65.472 C279.881233,68.934 280.073233,71.178 280.394233,72.139 C281.034233,74.191 282.960233,75.536 284.307233,75.536 C286.805233,75.536 289.244233,73.806 291.488233,72.201 C292.001233,71.883 292.385233,71.883 292.833233,72.266 L293.411233,72.652 C293.859233,72.971 293.989233,73.422 293.795233,74 C290.270233,81.629 284.756233,85.475 277.253233,85.475 C269.622233,85.475 264.045233,80.408 262.570233,75.215 C262.122233,73.74 261.928233,69.83 261.928233,63.419 L261.928233,32 C261.928233,31.36 261.606233,31.039 260.966233,31.039 L255.646233,31.039 C254.811233,31.039 254.554233,30.526 255.068233,29.883 M424.640233,29.883 L445.478233,4.174 C446.056233,3.469 446.634233,3.661 446.699233,4.557 L447.276233,23.088 C447.276233,24.369 447.595233,24.05 448.238233,24.05 L456.893233,24.05 C457.406233,24.05 457.725233,24.177 458.047233,24.563 L462.665233,29.883 C463.240233,30.461 462.986233,31.039 462.151233,31.039 L450.418233,31.039 C449.775233,31.039 449.456233,31.36 449.456233,32 L449.456233,65.472 C449.456233,68.934 449.648233,71.178 449.970233,72.139 C450.609233,74.191 452.532233,75.536 453.880233,75.536 C456.381233,75.536 458.816233,73.806 461.060233,72.201 C461.574233,71.883 461.957233,71.883 462.408233,72.266 L462.986233,72.652 C463.434233,72.971 463.561233,73.422 463.369233,74 C459.843233,81.629 454.328233,85.475 446.826233,85.475 C439.196233,85.475 433.617233,80.408 432.142233,75.215 C431.694233,73.74 431.503233,69.83 431.503233,63.419 L431.503233,32 C431.503233,31.36 431.181233,31.039 430.541233,31.039 L425.219233,31.039 C424.387233,31.039 424.128233,30.526 424.640233,29.883 M361.832233,29.852 L383.826233,29.852 C384.466233,29.852 384.787233,30.173 384.787233,30.749 L384.787233,35.237 C384.787233,36.072 385.365233,36.263 386.005233,35.686 C391.646233,30.492 396.713233,28.248 402.740233,28.248 C410.499233,28.248 415.819233,32.609 417.551233,38.38 C418.258233,40.56 418.577233,44.727 418.577233,50.946 L418.577233,71.273 C418.577233,71.657 418.706233,71.979 418.963233,72.3 L427.491233,82.557 C428.002233,83.135 427.748233,83.583 426.913233,83.583 L396.200233,83.583 C395.368233,83.583 395.111233,83.135 395.625233,82.557 L400.240233,77.172 C400.496233,76.788 400.626233,76.531 400.626233,76.081 L400.626233,47.933 C400.626233,43.509 400.431233,40.752 400.048233,39.599 C399.278233,37.354 397.291233,36.007 395.047233,36.007 C391.519233,36.007 388.184233,38.189 385.108233,42.548 C384.851233,42.931 384.787233,43.252 384.787233,43.636 L384.787233,75.954 C384.787233,76.337 384.917233,76.658 385.171233,76.979 L389.789233,82.557 C390.302233,83.135 390.045233,83.583 389.211233,83.583 L361.897233,83.583 C361.062233,83.583 360.805233,83.135 361.319233,82.557 L366.386233,76.979 C366.704233,76.658 366.834233,76.337 366.834233,75.954 L366.834233,37.738 C366.834233,37.354 366.704233,37.033 366.450233,36.712 L361.319233,30.878 C360.805233,30.3 361.062233,29.852 361.832233,29.852 M330.002233,76.529 C323.075233,81.852 316.918233,84.417 311.273233,84.417 C304.411233,84.417 299.345233,79.864 299.345233,73.837 C299.345233,69.731 301.333233,66.013 305.246233,62.74 C309.094233,59.47 317.496233,55.303 330.259233,48.311 C330.771233,48.055 331.028233,47.668 331.028233,47.22 L331.028233,44.271 C331.028233,40.166 330.771233,37.601 330.323233,36.51 C329.297233,34.457 326.280233,32.599 322.883233,32.599 C320.444233,32.599 318.392233,33.047 316.725233,33.879 C316.213233,34.139 316.083233,34.522 316.148233,34.97 L318.392233,45.937 C318.521233,46.515 318.136233,46.901 317.430233,46.771 L301.524233,44.141 C300.949233,44.014 300.628233,43.693 300.692233,43.115 C301.141233,37.922 306.207233,32.855 314.481233,30.226 C318.841233,28.943 323.396233,28.238 328.076233,28.238 C339.429233,28.238 346.035233,33.496 348.022233,38.562 C348.600233,40.166 348.727233,43.823 348.919233,49.658 L349.754233,75.666 C349.754233,76.177 349.883233,76.498 350.205233,76.884 L356.875233,82.43 C357.450233,83.008 357.193233,83.585 356.362233,83.585 L332.181233,83.585 C331.541233,83.585 331.220233,83.264 331.220233,82.621 L331.220233,76.915 C331.093233,76.272 330.580233,76.081 330.002233,76.529 M331.028233,70.885 L331.028233,54.339 C331.028233,53.634 330.514233,53.312 329.872233,53.825 C325.254233,56.647 321.792233,59.405 319.483233,62.227 C317.817233,64.344 316.982233,66.396 316.982233,68.511 C316.982233,72.041 319.740233,74.733 323.588233,74.733 C325.576233,74.733 327.885233,73.771 330.450233,71.911 C330.834233,71.654 331.028233,71.336 331.028233,70.885" id="dilettantminilogo" stroke="#1D3135" stroke-width="1.5" fill-rule="nonzero"></path>
    </g>
</svg>